ffmpeg started on 2026-03-24 at 12:57:03
Report written to "D:\Convert\FFMetrics\reports\psnr_report-6.txt"
Log level: 32
Command line:
ffmpeg -hide_banner -nostdin -r 24000/1001 -i "F:\\\xc0\xed\xe8\xec\xe5\\LightFamily\\\xcc\xee\xe6\xe5\xf2 \xeb\xe8 \xf1\xf3\xf9\xe5\xf1\xf2\xe2\xee\xe2\xe0\xf2\xfc \xe4\xf0\xf3\xe6\xe1\xe0 \xec\xe5\xe6\xe4\xf3 \xec\xf3\xe6\xf7\xe8\xed\xee\xe9 \xe8 \xe6\xe5\xed\xf9\xe8\xed\xee\xe9 (\xcd\xe5\xf2, \xfd\xf2\xee \xed\xe5 \xf2\xe0\xea!)\\LightFamilyDUB_\xcc\xee\xe6\xe5\xf2_\xeb\xe8_\xf1\xf3\xf9\xe5\xf1\xf2\xe2\xee\xe2\xe0\xf2\xfc_\xe4\xf0\xf3\xe6\xe1\xe0_\xec\xe5\xe6\xe4\xf3_\xef\xe0\xf0\xed\xe5\xec_\xe8_\xe4\xe5\xe2\xf3\xf8\xea\xee\xe9_07_HEVC.mkv" -r 24000/1001 -i "F:\\\xc0\xed\xe8\xec\xe5\\LightFamily\\\xcc\xee\xe6\xe5\xf2 \xeb\xe8 \xf1\xf3\xf9\xe5\xf1\xf2\xe2\xee\xe2\xe0\xf2\xfc \xe4\xf0\xf3\xe6\xe1\xe0 \xec\xe5\xe6\xe4\xf3 \xec\xf3\xe6\xf7\xe8\xed\xee\xe9 \xe8 \xe6\xe5\xed\xf9\xe8\xed\xee\xe9 (\xcd\xe5\xf2, \xfd\xf2\xee \xed\xe5 \xf2\xe0\xea!)\\LightFamilyDUB_\xcc\xee\xe6\xe5\xf2_\xeb\xe8_\xf1\xf3\xf9\xe5\xf1\xf2\xe2\xee\xe2\xe0\xf2\xfc_\xe4\xf0\xf3\xe6\xe1\xe0_\xec\xe5\xe6\xe4\xf3_\xef\xe0\xf0\xed\xe5\xec_\xe8_\xe4\xe5\xe2\xf3\xf8\xea\xee\xe9_07.mp4" -lavfi "[0:v]settb=AVTB,setpts=PTS-STARTPTS,format=pix_fmts=yuv420p10le,fps=24000/1001,scale=1920:1080:flags=lanczos:param0=3:out_range=limited:out_chroma_loc=left,setsar=1/1,setdar=(1920/1080)*(1/1)[main];[1:v]settb=AVTB,setpts=PTS-STARTPTS,format=pix_fmts=yuv420p,fps=24000/1001,scale=1920:1080:flags=lanczos:param0=3:out_range=limited:out_chroma_loc=left,setsar=1/1,setdar=(1920/1080)*(1/1)[ref];[main][ref]psnr=eof_action=endall:stats_file='D\\:/Convert/FFMetrics/logs/psnr_logfile-6.txt'" -f null -
Input #0, matroska,webm, from 'F:\Аниме\LightFamily\Может ли существовать дружба между мужчиной и женщиной (Нет, это не так!)\LightFamilyDUB_Может_ли_существовать_дружба_между_парнем_и_девушкой_07_HEVC.mkv':
  Metadata:
    COMPATIBLE_BRANDS: mp42mp41
    MAJOR_BRAND     : mp42
    MINOR_VERSION   : 0
    ENCODER         : Lavf61.7.100
  Duration: 00:23:40.37, start: -0.021000, bitrate: 855 kb/s
  Stream #0:0(eng): Video: hevc (Main 10), yuv420p10le(tv, progressive), 1920x1080 [SAR 1:1 DAR 16:9], 23.98 fps, 23.98 tbr, 1k tbn (default)
      Metadata:
        HANDLER_NAME    : Mainconcept Video Media Handler
        VENDOR_ID       : [0][0][0][0]
        ENCODER         : Lavc61.19.100 libx265
        BPS             : 655741
        DURATION        : 00:23:40.335708333
        NUMBER_OF_FRAMES: 34054
        NUMBER_OF_BYTES : 116421621
        _STATISTICS_WRITING_APP: mkvpropedit v94.0 ('Initiate') 64-bit
        _STATISTICS_WRITING_DATE_UTC: 2026-03-24 06:36:41
        _STATISTICS_TAGS: BPS DURATION NUMBER_OF_FRAMES NUMBER_OF_BYTES
  Stream #0:1(eng): Audio: aac (LC), 48000 Hz, stereo, fltp (default)
      Metadata:
        HANDLER_NAME    : #Mainconcept MP4 Sound Media Handler
        VENDOR_ID       : [0][0][0][0]
        ENCODER         : Lavc61.19.100 aac
        BPS             : 196000
        DURATION        : 00:23:40.352000000
        NUMBER_OF_FRAMES: 66580
        NUMBER_OF_BYTES : 34798761
        _STATISTICS_WRITING_APP: mkvpropedit v94.0 ('Initiate') 64-bit
        _STATISTICS_WRITING_DATE_UTC: 2026-03-24 06:36:41
        _STATISTICS_TAGS: BPS DURATION NUMBER_OF_FRAMES NUMBER_OF_BYTES
Input #1, mov,mp4,m4a,3gp,3g2,mj2, from 'F:\Аниме\LightFamily\Может ли существовать дружба между мужчиной и женщиной (Нет, это не так!)\LightFamilyDUB_Может_ли_существовать_дружба_между_парнем_и_девушкой_07.mp4':
  Metadata:
    major_brand     : mp42
    minor_version   : 0
    compatible_brands: mp42mp41
    creation_time   : 2025-10-08T21:10:25.000000Z
  Duration: 00:23:40.34, start: 0.000000, bitrate: 7971 kb/s
  Stream #1:0[0x1](eng): Video: h264 (Main) (avc1 / 0x31637661), yuv420p(progressive), 1920x1080 [SAR 1:1 DAR 16:9], 7587 kb/s, 23.98 fps, 23.98 tbr, 24k tbn (default)
      Metadata:
        creation_time   : 2025-10-08T21:10:25.000000Z
        handler_name    : Mainconcept Video Media Handler
        vendor_id       : [0][0][0][0]
        encoder         : AVC Coding
  Stream #1:1[0x2](eng): Audio: aac (LC) (mp4a / 0x6134706D), 48000 Hz, stereo, fltp, 381 kb/s (default)
      Metadata:
        creation_time   : 2025-10-08T21:10:25.000000Z
        handler_name    : #Mainconcept MP4 Sound Media Handler
        vendor_id       : [0][0][0][0]
Stream mapping:
  Stream #0:0 (hevc) -> settb:default
  Stream #1:0 (h264) -> settb:default
  psnr:default -> Stream #0:0 (wrapped_avframe)
  Stream #0:1 -> #0:1 (aac (native) -> pcm_s16le (native))
Output #0, null, to 'pipe:':
  Metadata:
    COMPATIBLE_BRANDS: mp42mp41
    MAJOR_BRAND     : mp42
    MINOR_VERSION   : 0
    encoder         : Lavf61.7.100
  Stream #0:0: Video: wrapped_avframe, yuv420p10le(tv, progressive), 1920x1080 [SAR 1:1 DAR 16:9], q=2-31, 200 kb/s, 23.98 fps, 23.98 tbn
      Metadata:
        encoder         : Lavc61.19.100 wrapped_avframe
  Stream #0:1(eng): Audio: pcm_s16le, 48000 Hz, stereo, s16, 1536 kb/s (default)
      Metadata:
        HANDLER_NAME    : #Mainconcept MP4 Sound Media Handler
        VENDOR_ID       : [0][0][0][0]
        _STATISTICS_TAGS: BPS DURATION NUMBER_OF_FRAMES NUMBER_OF_BYTES
        BPS             : 196000
        DURATION        : 00:23:40.352000000
        NUMBER_OF_FRAMES: 66580
        NUMBER_OF_BYTES : 34798761
        _STATISTICS_WRITING_APP: mkvpropedit v94.0 ('Initiate') 64-bit
        _STATISTICS_WRITING_DATE_UTC: 2026-03-24 06:36:41
        encoder         : Lavc61.19.100 pcm_s16le
frame=  209 fps=0.0 q=-0.0 size=N/A time=00:00:08.71 bitrate=N/A speed=16.7x    frame=  434 fps=422 q=-0.0 size=N/A time=00:00:18.10 bitrate=N/A speed=17.6x    frame=  614 fps=399 q=-0.0 size=N/A time=00:00:25.60 bitrate=N/A speed=16.6x    frame=  775 fps=375 q=-0.0 size=N/A time=00:00:32.32 bitrate=N/A speed=15.6x    frame=  949 fps=368 q=-0.0 size=N/A time=00:00:39.58 bitrate=N/A speed=15.4x    frame= 1166 fps=376 q=-0.0 size=N/A time=00:00:48.63 bitrate=N/A speed=15.7x    frame= 1359 fps=377 q=-0.0 size=N/A time=00:00:56.68 bitrate=N/A speed=15.7x    frame= 1552 fps=376 q=-0.0 size=N/A time=00:01:04.73 bitrate=N/A speed=15.7x    frame= 1733 fps=373 q=-0.0 size=N/A time=00:01:12.28 bitrate=N/A speed=15.6x    frame= 1904 fps=369 q=-0.0 size=N/A time=00:01:19.41 bitrate=N/A speed=15.4x    frame= 2077 fps=367 q=-0.0 size=N/A time=00:01:26.62 bitrate=N/A speed=15.3x    frame= 2272 fps=367 q=-0.0 size=N/A time=00:01:34.76 bitrate=N/A speed=15.3x    frame= 2459 fps=367 q=-0.0 size=N/A time=00:01:42.56 bitrate=N/A speed=15.3x    frame= 2647 fps=367 q=-0.0 size=N/A time=00:01:50.40 bitrate=N/A speed=15.3x    frame= 2871 fps=371 q=-0.0 size=N/A time=00:01:59.74 bitrate=N/A speed=15.5x    frame= 3105 fps=376 q=-0.0 size=N/A time=00:02:09.50 bitrate=N/A speed=15.7x    frame= 3319 fps=379 q=-0.0 size=N/A time=00:02:18.42 bitrate=N/A speed=15.8x    frame= 3556 fps=383 q=-0.0 size=N/A time=00:02:28.31 bitrate=N/A speed=  16x    frame= 3770 fps=385 q=-0.0 size=N/A time=00:02:37.24 bitrate=N/A speed=  16x    frame= 4018 fps=390 q=-0.0 size=N/A time=00:02:47.58 bitrate=N/A speed=16.3x    frame= 4266 fps=394 q=-0.0 size=N/A time=00:02:57.92 bitrate=N/A speed=16.4x    frame= 4497 fps=396 q=-0.0 size=N/A time=00:03:07.56 bitrate=N/A speed=16.5x    frame= 4710 fps=397 q=-0.0 size=N/A time=00:03:16.44 bitrate=N/A speed=16.6x    frame= 4915 fps=397 q=-0.0 size=N/A time=00:03:24.99 bitrate=N/A speed=16.6x    frame= 5144 fps=399 q=-0.0 size=N/A time=00:03:34.54 bitrate=N/A speed=16.6x    frame= 5376 fps=400 q=-0.0 size=N/A time=00:03:44.22 bitrate=N/A speed=16.7x    frame= 5614 fps=403 q=-0.0 size=N/A time=00:03:54.15 bitrate=N/A speed=16.8x    frame= 5834 fps=404 q=-0.0 size=N/A time=00:04:03.32 bitrate=N/A speed=16.8x    frame= 6089 fps=407 q=-0.0 size=N/A time=00:04:13.96 bitrate=N/A speed=  17x    frame= 6302 fps=407 q=-0.0 size=N/A time=00:04:22.84 bitrate=N/A speed=  17x    frame= 6545 fps=409 q=-0.0 size=N/A time=00:04:32.98 bitrate=N/A speed=17.1x    frame= 6783 fps=411 q=-0.0 size=N/A time=00:04:42.90 bitrate=N/A speed=17.1x    frame= 7032 fps=413 q=-0.0 size=N/A time=00:04:53.29 bitrate=N/A speed=17.2x    frame= 7271 fps=414 q=-0.0 size=N/A time=00:05:03.26 bitrate=N/A speed=17.3x    frame= 7499 fps=415 q=-0.0 size=N/A time=00:05:12.77 bitrate=N/A speed=17.3x    frame= 7744 fps=417 q=-0.0 size=N/A time=00:05:22.98 bitrate=N/A speed=17.4x    frame= 7954 fps=416 q=-0.0 size=N/A time=00:05:31.74 bitrate=N/A speed=17.4x    frame= 8195 fps=418 q=-0.0 size=N/A time=00:05:41.79 bitrate=N/A speed=17.4x    frame= 8429 fps=419 q=-0.0 size=N/A time=00:05:51.55 bitrate=N/A speed=17.5x    frame= 8669 fps=420 q=-0.0 size=N/A time=00:06:01.56 bitrate=N/A speed=17.5x    frame= 8914 fps=421 q=-0.0 size=N/A time=00:06:11.78 bitrate=N/A speed=17.6x    frame= 9149 fps=422 q=-0.0 size=N/A time=00:06:21.58 bitrate=N/A speed=17.6x    frame= 9389 fps=423 q=-0.0 size=N/A time=00:06:31.59 bitrate=N/A speed=17.6x    frame= 9627 fps=424 q=-0.0 size=N/A time=00:06:41.52 bitrate=N/A speed=17.7x    frame= 9863 fps=424 q=-0.0 size=N/A time=00:06:51.36 bitrate=N/A speed=17.7x    frame=10108 fps=426 q=-0.0 size=N/A time=00:07:01.58 bitrate=N/A speed=17.8x    frame=10348 fps=427 q=-0.0 size=N/A time=00:07:11.59 bitrate=N/A speed=17.8x    frame=10593 fps=427 q=-0.0 size=N/A time=00:07:21.81 bitrate=N/A speed=17.8x    frame=10799 fps=427 q=-0.0 size=N/A time=00:07:30.40 bitrate=N/A speed=17.8x    frame=11037 fps=428 q=-0.0 size=N/A time=00:07:40.33 bitrate=N/A speed=17.8x    frame=11267 fps=428 q=-0.0 size=N/A time=00:07:49.92 bitrate=N/A speed=17.8x    frame=11514 fps=429 q=-0.0 size=N/A time=00:08:00.22 bitrate=N/A speed=17.9x    frame=11753 fps=429 q=-0.0 size=N/A time=00:08:10.19 bitrate=N/A speed=17.9x    frame=11977 fps=430 q=-0.0 size=N/A time=00:08:19.54 bitrate=N/A speed=17.9x    frame=12209 fps=430 q=-0.0 size=N/A time=00:08:29.21 bitrate=N/A speed=17.9x    frame=12442 fps=431 q=-0.0 size=N/A time=00:08:38.93 bitrate=N/A speed=  18x    frame=12689 fps=431 q=-0.0 size=N/A time=00:08:49.23 bitrate=N/A speed=  18x    frame=12929 fps=432 q=-0.0 size=N/A time=00:08:59.24 bitrate=N/A speed=  18x    frame=13168 fps=432 q=-0.0 size=N/A time=00:09:09.21 bitrate=N/A speed=  18x    frame=13405 fps=433 q=-0.0 size=N/A time=00:09:19.10 bitrate=N/A speed=18.1x    frame=13637 fps=433 q=-0.0 size=N/A time=00:09:28.77 bitrate=N/A speed=18.1x    frame=13871 fps=434 q=-0.0 size=N/A time=00:09:38.53 bitrate=N/A speed=18.1x    frame=14119 fps=434 q=-0.0 size=N/A time=00:09:48.87 bitrate=N/A speed=18.1x    frame=14354 fps=435 q=-0.0 size=N/A time=00:09:58.72 bitrate=N/A speed=18.1x    frame=14592 fps=435 q=-0.0 size=N/A time=00:10:08.60 bitrate=N/A speed=18.1x    frame=14831 fps=435 q=-0.0 size=N/A time=00:10:18.57 bitrate=N/A speed=18.2x    frame=15052 fps=435 q=-0.0 size=N/A time=00:10:27.79 bitrate=N/A speed=18.2x    frame=15280 fps=435 q=-0.0 size=N/A time=00:10:37.30 bitrate=N/A speed=18.2x    frame=15512 fps=436 q=-0.0 size=N/A time=00:10:46.97 bitrate=N/A speed=18.2x    frame=15721 fps=435 q=-0.0 size=N/A time=00:10:55.69 bitrate=N/A speed=18.2x    frame=15959 fps=435 q=-0.0 size=N/A time=00:11:05.62 bitrate=N/A speed=18.2x    frame=16201 fps=436 q=-0.0 size=N/A time=00:11:15.71 bitrate=N/A speed=18.2x    frame=16433 fps=436 q=-0.0 size=N/A time=00:11:25.39 bitrate=N/A speed=18.2x    frame=16671 fps=437 q=-0.0 size=N/A time=00:11:35.31 bitrate=N/A speed=18.2x    frame=16906 fps=437 q=-0.0 size=N/A time=00:11:45.12 bitrate=N/A speed=18.2x    frame=17139 fps=437 q=-0.0 size=N/A time=00:11:54.83 bitrate=N/A speed=18.2x    frame=17369 fps=437 q=-0.0 size=N/A time=00:12:04.43 bitrate=N/A speed=18.2x    frame=17612 fps=438 q=-0.0 size=N/A time=00:12:14.56 bitrate=N/A speed=18.3x    frame=17849 fps=438 q=-0.0 size=N/A time=00:12:24.45 bitrate=N/A speed=18.3x    frame=18089 fps=438 q=-0.0 size=N/A time=00:12:34.46 bitrate=N/A speed=18.3x    frame=18329 fps=439 q=-0.0 size=N/A time=00:12:44.47 bitrate=N/A speed=18.3x    frame=18570 fps=439 q=-0.0 size=N/A time=00:12:54.52 bitrate=N/A speed=18.3x    frame=18810 fps=439 q=-0.0 size=N/A time=00:13:04.53 bitrate=N/A speed=18.3x    frame=19032 fps=439 q=-0.0 size=N/A time=00:13:13.79 bitrate=N/A speed=18.3x    frame=19259 fps=439 q=-0.0 size=N/A time=00:13:23.26 bitrate=N/A speed=18.3x    frame=19499 fps=439 q=-0.0 size=N/A time=00:13:33.27 bitrate=N/A speed=18.3x    frame=19747 fps=440 q=-0.0 size=N/A time=00:13:43.61 bitrate=N/A speed=18.3x    frame=19984 fps=440 q=-0.0 size=N/A time=00:13:53.49 bitrate=N/A speed=18.4x    frame=20215 fps=440 q=-0.0 size=N/A time=00:14:03.13 bitrate=N/A speed=18.4x    frame=20415 fps=440 q=-0.0 size=N/A time=00:14:11.47 bitrate=N/A speed=18.3x    frame=20629 fps=439 q=-0.0 size=N/A time=00:14:20.40 bitrate=N/A speed=18.3x    frame=20813 fps=438 q=-0.0 size=N/A time=00:14:28.07 bitrate=N/A speed=18.3x    frame=21036 fps=438 q=-0.0 size=N/A time=00:14:37.37 bitrate=N/A speed=18.3x    frame=21266 fps=438 q=-0.0 size=N/A time=00:14:46.96 bitrate=N/A speed=18.3x    frame=21505 fps=439 q=-0.0 size=N/A time=00:14:56.93 bitrate=N/A speed=18.3x    frame=21701 fps=438 q=-0.0 size=N/A time=00:15:05.11 bitrate=N/A speed=18.3x    frame=21894 fps=437 q=-0.0 size=N/A time=00:15:13.16 bitrate=N/A speed=18.2x    frame=22109 fps=437 q=-0.0 size=N/A time=00:15:22.12 bitrate=N/A speed=18.2x    frame=22353 fps=438 q=-0.0 size=N/A time=00:15:32.30 bitrate=N/A speed=18.3x    frame=22606 fps=438 q=-0.0 size=N/A time=00:15:42.85 bitrate=N/A speed=18.3x    frame=22843 fps=438 q=-0.0 size=N/A time=00:15:52.74 bitrate=N/A speed=18.3x    frame=23064 fps=438 q=-0.0 size=N/A time=00:16:01.96 bitrate=N/A speed=18.3x    frame=23306 fps=439 q=-0.0 size=N/A time=00:16:12.05 bitrate=N/A speed=18.3x    frame=23520 fps=438 q=-0.0 size=N/A time=00:16:20.98 bitrate=N/A speed=18.3x    frame=23763 fps=439 q=-0.0 size=N/A time=00:16:31.11 bitrate=N/A speed=18.3x    frame=23999 fps=439 q=-0.0 size=N/A time=00:16:40.95 bitrate=N/A speed=18.3x    frame=24239 fps=439 q=-0.0 size=N/A time=00:16:50.96 bitrate=N/A speed=18.3x    frame=24480 fps=439 q=-0.0 size=N/A time=00:17:01.02 bitrate=N/A speed=18.3x    frame=24721 fps=440 q=-0.0 size=N/A time=00:17:11.07 bitrate=N/A speed=18.3x    frame=24945 fps=440 q=-0.0 size=N/A time=00:17:20.41 bitrate=N/A speed=18.3x    frame=25181 fps=440 q=-0.0 size=N/A time=00:17:30.25 bitrate=N/A speed=18.3x    frame=25417 fps=440 q=-0.0 size=N/A time=00:17:40.10 bitrate=N/A speed=18.3x    frame=25650 fps=440 q=-0.0 size=N/A time=00:17:49.81 bitrate=N/A speed=18.4x    frame=25889 fps=440 q=-0.0 size=N/A time=00:17:59.78 bitrate=N/A speed=18.4x    frame=26128 fps=440 q=-0.0 size=N/A time=00:18:09.75 bitrate=N/A speed=18.4x    frame=26339 fps=440 q=-0.0 size=N/A time=00:18:18.55 bitrate=N/A speed=18.4x    frame=26539 fps=440 q=-0.0 size=N/A time=00:18:26.89 bitrate=N/A speed=18.3x    frame=26779 fps=440 q=-0.0 size=N/A time=00:18:36.90 bitrate=N/A speed=18.3x    frame=27029 fps=440 q=-0.0 size=N/A time=00:18:47.33 bitrate=N/A speed=18.4x    frame=27272 fps=441 q=-0.0 size=N/A time=00:18:57.46 bitrate=N/A speed=18.4x    frame=27516 fps=441 q=-0.0 size=N/A time=00:19:07.64 bitrate=N/A speed=18.4x    frame=27765 fps=441 q=-0.0 size=N/A time=00:19:18.03 bitrate=N/A speed=18.4x    frame=27999 fps=441 q=-0.0 size=N/A time=00:19:27.79 bitrate=N/A speed=18.4x    frame=28247 fps=442 q=-0.0 size=N/A time=00:19:38.13 bitrate=N/A speed=18.4x    frame=28503 fps=442 q=-0.0 size=N/A time=00:19:48.81 bitrate=N/A speed=18.4x    frame=28734 fps=442 q=-0.0 size=N/A time=00:19:58.44 bitrate=N/A speed=18.4x    frame=28971 fps=442 q=-0.0 size=N/A time=00:20:08.33 bitrate=N/A speed=18.4x    frame=29200 fps=442 q=-0.0 size=N/A time=00:20:17.88 bitrate=N/A speed=18.4x    frame=29410 fps=442 q=-0.0 size=N/A time=00:20:26.64 bitrate=N/A speed=18.4x    frame=29646 fps=442 q=-0.0 size=N/A time=00:20:36.48 bitrate=N/A speed=18.4x    frame=29876 fps=442 q=-0.0 size=N/A time=00:20:46.07 bitrate=N/A speed=18.4x    frame=30095 fps=442 q=-0.0 size=N/A time=00:20:55.21 bitrate=N/A speed=18.4x    frame=30319 fps=442 q=-0.0 size=N/A time=00:21:04.55 bitrate=N/A speed=18.4x    frame=30536 fps=442 q=-0.0 size=N/A time=00:21:13.60 bitrate=N/A speed=18.4x    frame=30758 fps=442 q=-0.0 size=N/A time=00:21:22.86 bitrate=N/A speed=18.4x    frame=30957 fps=441 q=-0.0 size=N/A time=00:21:31.16 bitrate=N/A speed=18.4x    frame=31176 fps=441 q=-0.0 size=N/A time=00:21:40.29 bitrate=N/A speed=18.4x    frame=31408 fps=441 q=-0.0 size=N/A time=00:21:49.97 bitrate=N/A speed=18.4x    frame=31623 fps=441 q=-0.0 size=N/A time=00:21:58.94 bitrate=N/A speed=18.4x    frame=31858 fps=441 q=-0.0 size=N/A time=00:22:08.74 bitrate=N/A speed=18.4x    frame=32049 fps=441 q=-0.0 size=N/A time=00:22:16.71 bitrate=N/A speed=18.4x    frame=32245 fps=440 q=-0.0 size=N/A time=00:22:24.88 bitrate=N/A speed=18.4x    frame=32414 fps=439 q=-0.0 size=N/A time=00:22:31.93 bitrate=N/A speed=18.3x    frame=32605 fps=439 q=-0.0 size=N/A time=00:22:39.90 bitrate=N/A speed=18.3x    frame=32756 fps=438 q=-0.0 size=N/A time=00:22:46.19 bitrate=N/A speed=18.3x    frame=32944 fps=437 q=-0.0 size=N/A time=00:22:54.03 bitrate=N/A speed=18.2x    frame=33123 fps=437 q=-0.0 size=N/A time=00:23:01.50 bitrate=N/A speed=18.2x    frame=33314 fps=436 q=-0.0 size=N/A time=00:23:09.47 bitrate=N/A speed=18.2x    frame=33506 fps=436 q=-0.0 size=N/A time=00:23:17.47 bitrate=N/A speed=18.2x    frame=33689 fps=435 q=-0.0 size=N/A time=00:23:25.11 bitrate=N/A speed=18.2x    frame=33898 fps=435 q=-0.0 size=N/A time=00:23:33.82 bitrate=N/A speed=18.1x    [Parsed_psnr_14 @ 00000266cb6b0c40] PSNR y:48.426813 u:50.753051 v:50.617670 average:49.057383 min:40.894699 max:89.282363
[out#0/null @ 00000266b5331600] video:14633KiB audio:266320KiB subtitle:0KiB other streams:0KiB global headers:0KiB muxing overhead: unknown
frame=34054 fps=435 q=-0.0 Lsize=N/A time=00:23:40.33 bitrate=N/A speed=18.2x    
